<svg width="20" height="20" viewBox="0 0 20 20" fill="none" xmlns="http://www.w3.org/2000/svg">
<path d="M3.23543 19.4961C2.73879 19.4961 2.31207 19.3176 1.95526 18.9607C1.59843 18.6038 1.42001 18.1769 1.42001 17.6801V3.70047C1.42001 3.20012 1.59843 2.7702 1.95526 2.41073C2.31207 2.05126 2.73879 1.87153 3.23543 1.87153H4.60843V1.34627C4.60843 1.11121 4.6925 0.910749 4.86063 0.744887C5.02876 0.579024 5.22883 0.496094 5.46084 0.496094C5.69936 0.496094 5.90189 0.579024 6.06843 0.744887C6.23496 0.910749 6.31822 1.11121 6.31822 1.34627V1.87153H13.6695V1.34627C13.6695 1.11121 13.7535 0.910749 13.9217 0.744887C14.0898 0.579024 14.2899 0.496094 14.5219 0.496094C14.7604 0.496094 14.9629 0.579024 15.1295 0.744887C15.296 0.910749 15.3793 1.11121 15.3793 1.34627V1.87153H16.7523C17.2525 1.87153 17.6822 2.05126 18.0416 2.41073C18.401 2.7702 18.5806 3.20012 18.5806 3.70047V17.6801C18.5806 18.1769 18.401 18.6038 18.0416 18.9607C17.6822 19.3176 17.2525 19.4961 16.7523 19.4961H3.23543ZM3.23543 17.6801H16.7523V7.93941H3.23543V17.6801ZM9.99522 11.9142C9.71385 11.9142 9.47755 11.819 9.28632 11.6287C9.09509 11.4383 8.99947 11.2023 8.99947 10.9209C8.99947 10.6394 9.09463 10.4031 9.28495 10.2118C9.47528 10.0205 9.71112 9.92484 9.99247 9.92484C10.2738 9.92484 10.5101 10.02 10.7014 10.2104C10.8926 10.4008 10.9882 10.6367 10.9882 10.9182C10.9882 11.1996 10.8931 11.436 10.7028 11.6273C10.5124 11.8186 10.2766 11.9142 9.99522 11.9142ZM6.32856 11.9142C6.04719 11.9142 5.81088 11.819 5.61965 11.6287C5.42842 11.4383 5.33281 11.2023 5.33281 10.9209C5.33281 10.6394 5.42796 10.4031 5.61828 10.2118C5.80861 10.0205 6.04445 9.92484 6.32581 9.92484C6.60718 9.92484 6.84348 10.02 7.03471 10.2104C7.22594 10.4008 7.32156 10.6367 7.32156 10.9182C7.32156 11.1996 7.2264 11.436 7.03609 11.6273C6.84576 11.8186 6.60991 11.9142 6.32856 11.9142ZM13.6619 11.9142C13.3926 11.9142 13.1593 11.819 12.9621 11.6287C12.7648 11.4383 12.6661 11.2023 12.6661 10.9209C12.6661 10.6394 12.7643 10.4031 12.9607 10.2118C13.1571 10.0205 13.392 9.92484 13.6656 9.92484C13.9392 9.92484 14.1725 10.02 14.3655 10.2104C14.5584 10.4008 14.6549 10.6367 14.6549 10.9182C14.6549 11.1996 14.5597 11.436 14.3694 11.6273C14.1791 11.8186 13.9432 11.9142 13.6619 11.9142ZM9.99522 15.5821C9.71385 15.5821 9.47755 15.4838 9.28632 15.2874C9.09509 15.091 8.99947 14.8559 8.99947 14.5823C8.99947 14.3086 9.09463 14.0752 9.28495 13.8822C9.47528 13.6892 9.71112 13.5927 9.99247 13.5927C10.2738 13.5927 10.5101 13.6879 10.7014 13.8782C10.8926 14.0686 10.9882 14.3045 10.9882 14.586C10.9882 14.8553 10.8931 15.0887 10.7028 15.286C10.5124 15.4834 10.2766 15.5821 9.99522 15.5821ZM6.32856 15.5821C6.04719 15.5821 5.81088 15.4838 5.61965 15.2874C5.42842 15.091 5.33281 14.8559 5.33281 14.5823C5.33281 14.3086 5.42796 14.0752 5.61828 13.8822C5.80861 13.6892 6.04445 13.5927 6.32581 13.5927C6.60718 13.5927 6.84348 13.6879 7.03471 13.8782C7.22594 14.0686 7.32156 14.3045 7.32156 14.586C7.32156 14.8553 7.2264 15.0887 7.03609 15.286C6.84576 15.4834 6.60991 15.5821 6.32856 15.5821ZM13.6619 15.5821C13.3926 15.5821 13.1593 15.4838 12.9621 15.2874C12.7648 15.091 12.6661 14.8559 12.6661 14.5823C12.6661 14.3086 12.7643 14.0752 12.9607 13.8822C13.1571 13.6892 13.392 13.5927 13.6656 13.5927C13.9392 13.5927 14.1725 13.6879 14.3655 13.8782C14.5584 14.0686 14.6549 14.3045 14.6549 14.586C14.6549 14.8553 14.5597 15.0887 14.3694 15.286C14.1791 15.4834 13.9432 15.5821 13.6619 15.5821Z" fill="#006726"/>
</svg>
